<svg width="399" height="422" viewBox="0 0 399 422" fill="none" xmlns="http://www.w3.org/2000/svg">
<g clip-path="url(#clip0_359_122)">
<path d="M281.702 35.2415C311.418 72.7502 326.022 119.34 322.768 166.254C319.514 213.167 298.627 257.172 264.033 289.998C229.438 322.824 183.519 342.21 134.908 344.511C86.2956 346.812 38.287 332.572 -1.52588e-05 303.196L138.742 171.192L281.702 35.2415Z" fill="#FF4C55"/>
<path d="M283.958 32.786C313.918 70.6022 328.642 117.574 325.361 164.872C322.081 212.17 301.022 256.536 266.144 289.631C231.266 322.726 184.971 342.271 135.961 344.591C86.9507 346.911 38.6009 332.813 0 303.197L13.0109 290.821C47.1509 314.564 87.9363 326.243 129.94 324.255C174.877 322.127 217.326 304.207 249.306 273.862C281.285 243.517 300.594 202.837 303.602 159.469C306.413 118.935 294.802 78.6611 270.842 45.2591L283.958 32.786Z" fill="#085737"/>
<path d="M276.332 39.7474C303.397 81.1863 309.493 108.255 306.213 155.553C302.932 202.85 281.873 247.217 246.995 280.312C212.118 313.407 165.823 332.952 116.812 335.272C67.8017 337.592 38.6008 332.813 -1.52588e-05 303.196L13.0109 290.821C42.9198 306.646 77.2732 315.082 111.605 313.456C156.543 311.329 198.991 293.408 230.971 263.063C262.951 232.719 282.259 192.039 285.267 148.672C287.602 115.009 279.988 81.5271 263.617 52.0108L276.332 39.7474Z" fill="#E5EB9D"/>
<path d="M121.479 265.076C124.759 271.325 121.517 279.295 114.239 282.879C106.961 286.463 98.4028 284.302 95.1235 278.054C91.8442 271.805 91.963 255.515 96.1215 248.357C103.786 248.599 118.2 258.827 121.479 265.076Z" fill="#3C2928"/>
<path d="M185.738 230.436C190.418 235.782 189.164 244.263 182.937 249.377C176.709 254.491 167.866 254.302 163.187 248.956C158.507 243.609 154.741 227.732 157.081 219.837C164.597 218.358 181.059 225.089 185.738 230.436Z" fill="#3C2928"/>
<path d="M226.704 182.444C233.181 185.571 235.479 193.843 231.837 200.921C228.195 207.999 219.992 211.202 213.515 208.075C207.038 204.947 197.116 191.794 196.054 183.645C202.359 179.417 220.228 179.317 226.704 182.444Z" fill="#3C2928"/>
<path d="M246.514 117.053C253.706 117.829 258.803 124.831 257.898 132.69C256.994 140.55 250.43 146.292 243.238 145.515C236.046 144.738 222.056 135.696 218.163 128.4C222.581 122.328 239.321 116.276 246.514 117.053Z" fill="#3C2928"/>
</g>
<defs>
<clipPath id="clip0_359_122">
<rect width="399" height="422" fill="white"/>
</clipPath>
</defs>
</svg>
